<svg xmlns="http://www.w3.org/2000/svg" width="15.984" height="16.241" viewBox="0 0 15.984 16.241">
  <g id="coin" transform="translate(-16.512 495.821)">
    <path id="Path_34" data-name="Path 34" d="M23.9-495.807a7.965,7.965,0,0,0-4.622,1.959,8.169,8.169,0,0,0-2.7,5.009,10.738,10.738,0,0,0,0,2.291,8.237,8.237,0,0,0,1.871,4.168,8.025,8.025,0,0,0,5.052,2.759,11.6,11.6,0,0,0,2,0,7.977,7.977,0,0,0,5.6-3.47,8.21,8.21,0,0,0,.987-7.171,8.017,8.017,0,0,0-6.866-5.527A10.8,10.8,0,0,0,23.9-495.807Zm.867,3.816c.223.156.25.224.26.685l.013.417.137.047a1.992,1.992,0,0,1,.994.918.546.546,0,0,1-.454.817.583.583,0,0,1-.5-.329.8.8,0,0,0-.82-.447.827.827,0,0,0-.65.915.848.848,0,0,0,.684.678,2.038,2.038,0,0,1,1.331.549,1.8,1.8,0,0,1,.607,1.356,1.981,1.981,0,0,1-.053.491,1.96,1.96,0,0,1-1.02,1.217l-.253.115-.013.4c-.01.342-.02.413-.08.495a.525.525,0,0,1-.894,0c-.06-.081-.07-.152-.08-.5l-.013-.4-.153-.061a1.983,1.983,0,0,1-.954-.861.576.576,0,0,1,.12-.786.455.455,0,0,1,.31-.078.492.492,0,0,1,.5.322.787.787,0,0,0,1.5-.227.866.866,0,0,0-.44-.84,1.633,1.633,0,0,0-.41-.091,1.907,1.907,0,0,1-1.5-.891,1.964,1.964,0,0,1-.257-1.406,1.789,1.789,0,0,1,1.077-1.339l.193-.081.017-.407c.013-.342.027-.42.087-.5a.543.543,0,0,1,.447-.247A.458.458,0,0,1,24.765-491.991Z" transform="translate(0)" fill="#fff"/>
  </g>
</svg>
