<svg id="wallet" xmlns="http://www.w3.org/2000/svg" width="15.434" height="12.789" viewBox="0 0 15.434 12.789">
  <path id="Path_32" data-name="Path 32" d="M2.407-467.846a2.257,2.257,0,0,0-1.837,1.6l-.069.226v9.081l.069.226a2.234,2.234,0,0,0,1.88,1.6c.35.045,11.169.045,11.519,0a2.232,2.232,0,0,0,1.877-1.581,4.447,4.447,0,0,0,.081-1.379l.009-1.168-2.272-.012c-2.525-.009-2.389,0-2.851-.22a2.222,2.222,0,0,1-.742-3.427,2.4,2.4,0,0,1,1.14-.736,15.071,15.071,0,0,1,2.453-.063l2.272-.012-.009-1.168a4.447,4.447,0,0,0-.081-1.379,2.232,2.232,0,0,0-1.877-1.581C13.657-467.885,2.714-467.885,2.407-467.846Z" transform="translate(-0.5 467.875)" fill="#fff"/>
  <path id="Path_33" data-name="Path 33" d="M331.147-299.952a1.34,1.34,0,0,0-.938,1.49,1.347,1.347,0,0,0,.95,1.071,17.378,17.378,0,0,0,2.335.045h2.181V-300l-2.193,0A18.64,18.64,0,0,0,331.147-299.952Zm1.2.905a.4.4,0,0,1,.2.374.4.4,0,0,1-.2.374c-.069.054-.136.066-.453.072a2.554,2.554,0,0,1-.489-.021.443.443,0,0,1-.205-.73c.121-.127.217-.145.667-.139C332.212-299.11,332.273-299.1,332.345-299.047Z" transform="translate(-320.244 305.065)" fill="#fff"/>
</svg>
