<svg id="credit-card" xmlns="http://www.w3.org/2000/svg" width="17.159" height="13.311" viewBox="0 0 17.159 13.311">
  <path id="Path_40" data-name="Path 40" d="M1.245-454.6a1.579,1.579,0,0,0-.785.413A1.556,1.556,0,0,0,0-453.049v.228H14.166l-.017-.312a1.511,1.511,0,0,0-.309-.886,1.56,1.56,0,0,0-.708-.52l-.2-.077-5.753,0C3.884-454.622,1.348-454.612,1.245-454.6Z" transform="translate(0 454.619)" fill="#fff"/>
  <path id="Path_41" data-name="Path 41" d="M0-370.5v.5H14.156V-371H0Z" transform="translate(0 373.805)" fill="#fff"/>
  <path id="Path_42" data-name="Path 42" d="M0-308.843c0,2.345,0,2.365.191,2.714a1.768,1.768,0,0,0,.7.641l.228.107,4.471.01,4.468.007v-.225a4.421,4.421,0,0,1,.389-1.684,4.193,4.193,0,0,1,1.885-1.912,4.147,4.147,0,0,1,1.6-.406h.215V-311H0Zm4.019-1.073a.475.475,0,0,1,.242.453.348.348,0,0,1-.131.319L4-309l-.778.01c-.433.007-.815,0-.855-.007a.519.519,0,0,1-.335-.57.58.58,0,0,1,.335-.386,5.987,5.987,0,0,1,.825-.027C3.811-309.977,3.921-309.97,4.019-309.917Zm1.6,1.62a.5.5,0,0,1,.017.842l-.114.077H3.952c-1.707,0-1.684,0-1.835-.188a.52.52,0,0,1,.252-.785c.054-.017.788-.027,1.63-.024C5.488-308.367,5.531-308.363,5.622-308.3Z" transform="translate(0 315.818)" fill="#fff"/>
  <path id="Path_43" data-name="Path 43" d="M332.527-238.831a2.965,2.965,0,0,0-1.63.929,3.047,3.047,0,0,0,1.613,5.048,3.853,3.853,0,0,0,1.241,0,3.111,3.111,0,0,0,2.355-2.294,3.846,3.846,0,0,0,0-1.385,2.924,2.924,0,0,0-.758-1.389,2.959,2.959,0,0,0-1.691-.922A4.093,4.093,0,0,0,332.527-238.831Zm1.852,1.9a.564.564,0,0,1,.345.382c.047.252.013.3-.7,1.02a10.389,10.389,0,0,1-.765.731.6.6,0,0,1-.456,0,6.7,6.7,0,0,1-.842-.849.7.7,0,0,1-.037-.242.36.36,0,0,1,.087-.272.513.513,0,0,1,.4-.2c.161,0,.235.04.446.245l.174.174.48-.48C334.047-236.959,334.124-237.006,334.379-236.936Z" transform="translate(-319.009 246.114)" fill="#fff"/>
</svg>
