<svg xmlns="http://www.w3.org/2000/svg" width="18.021" height="17.741" viewBox="0 0 18.021 17.741">
  <g id="income" transform="translate(-4 511.123)">
    <path id="Path_36" data-name="Path 36" d="M138.886-239.85a3.854,3.854,0,0,0-2.579,1.76l-.107.179,1.1,1.9,1.094,1.9h2.235c2.425,0,2.64-.014,3.255-.2.712-.218,1.052-.426,3.151-1.946,2.593-1.885,2.436-1.745,2.457-2.142a.707.707,0,0,0-.308-.665.806.806,0,0,0-.726-.064c-.072.036-.866.594-1.763,1.245s-1.717,1.234-1.821,1.295a2.031,2.031,0,0,1-.469.19,7.165,7.165,0,0,1-1.713.072c-1.373,0-1.438,0-1.584-.075a.573.573,0,0,1-.3-.483.613.613,0,0,1,.286-.447c.114-.064.232-.068,1.627-.068h1.506l.179-.089a.7.7,0,0,0,.372-.808.824.824,0,0,0-.483-.494,9.95,9.95,0,0,0-1.23-.039H141.98l-.211-.2A3.485,3.485,0,0,0,138.886-239.85Z" transform="translate(-127.472 -262.045)" fill="#fff"/>
    <path id="Path_37" data-name="Path 37" d="M6.886-193.406c-.054.018-.7.372-1.424.794-1.438.826-1.463.848-1.463,1.145a11.775,11.775,0,0,0,1.3,2.411c.715,1.238,1.32,2.282,1.345,2.321a.46.46,0,0,0,.415.215c.168,0,.258-.047,1.377-.694,1.52-.876,1.52-.876,1.588-1.019.107-.229.082-.322-.3-.987a46.692,46.692,0,0,0-2.45-4.117A.49.49,0,0,0,6.886-193.406Z" transform="translate(0 -306.861)" fill="#fff"/>
    <g id="coin" transform="translate(12.367 -511.123)">
      <path id="Path_34" data-name="Path 34" d="M20.233-495.814a4.012,4.012,0,0,0-2.328.987,4.115,4.115,0,0,0-1.362,2.523,5.409,5.409,0,0,0,0,1.154,4.149,4.149,0,0,0,.942,2.1,4.042,4.042,0,0,0,2.545,1.39,5.844,5.844,0,0,0,1.008,0,4.018,4.018,0,0,0,2.819-1.748,4.136,4.136,0,0,0,.5-3.612,4.038,4.038,0,0,0-3.459-2.784A5.434,5.434,0,0,0,20.233-495.814Zm.437,1.922c.113.078.126.113.131.345l.007.21.069.024a1,1,0,0,1,.5.463.275.275,0,0,1-.228.411.294.294,0,0,1-.252-.166.4.4,0,0,0-.413-.225.416.416,0,0,0-.328.461.427.427,0,0,0,.344.341,1.027,1.027,0,0,1,.67.277.909.909,0,0,1,.306.683,1,1,0,0,1-.027.247.987.987,0,0,1-.514.613l-.128.058-.007.2c-.005.172-.01.208-.04.249a.265.265,0,0,1-.45,0c-.03-.041-.035-.077-.04-.251l-.007-.2-.077-.031a1,1,0,0,1-.48-.434.29.29,0,0,1,.06-.4.229.229,0,0,1,.156-.039.248.248,0,0,1,.252.162A.4.4,0,0,0,20.93-491a.436.436,0,0,0-.222-.423.82.82,0,0,0-.207-.046.961.961,0,0,1-.754-.449.989.989,0,0,1-.129-.708.9.9,0,0,1,.543-.674l.1-.041.008-.2c.007-.172.013-.212.044-.253a.274.274,0,0,1,.225-.125A.231.231,0,0,1,20.67-493.891Z" transform="translate(-16.512 495.821)" fill="#fff"/>
    </g>
  </g>
</svg>
