<svg id="user" xmlns="http://www.w3.org/2000/svg" width="13.594" height="17.407" viewBox="0 0 13.594 17.407">
  <path id="Path_38" data-name="Path 38" d="M136.628-495.822a4.391,4.391,0,0,0-3.46,3.206,5.233,5.233,0,0,0-.069,1.816,4.37,4.37,0,0,0,3.562,3.551,5.468,5.468,0,0,0,1.743-.062,4.376,4.376,0,0,0,3.1-2.861,4.359,4.359,0,0,0-3.391-5.654A5.379,5.379,0,0,0,136.628-495.822Z" transform="translate(-130.597 495.876)" fill="#fff"/>
  <path id="Path_39" data-name="Path 39" d="M68.521-259.786a6.793,6.793,0,0,0-2.956,4.641,12.919,12.919,0,0,0-.065,2.015c0,1.58,0,1.623.076,1.721a.99.99,0,0,0,.174.174l.1.076H78.732l.1-.076a.851.851,0,0,0,.174-.2c.069-.116.073-.2.084-1.267a10.026,10.026,0,0,0-.359-3.577,6.874,6.874,0,0,0-2.32-3.25,4.054,4.054,0,0,0-.723-.472,1.964,1.964,0,0,0-.309.2,5.9,5.9,0,0,1-2.019.875,7.083,7.083,0,0,1-1.906.036,5.533,5.533,0,0,1-2.2-.875A3.247,3.247,0,0,0,68.87-260,2.831,2.831,0,0,0,68.521-259.786Z" transform="translate(-65.5 268.565)" fill="#fff"/>
</svg>
